<svg xmlns="http://www.w3.org/2000/svg" width="84" height="32" viewBox="0 0 84 32" fill="none">
<g opacity="0.9" clip-path="url(#clip0_359_527)">
<path d="M38.509 28.1905H40.6966V19.9391H38.509V28.1905ZM38.509 18.6523H40.6966V16.6899H38.509V18.6523Z" fill="#D1D5DB"/>
<path d="M42.1055 30.8927H44.293V27.2576H44.3252C44.7916 27.9653 45.5476 28.4318 46.7057 28.4318C48.8289 28.4318 50.2765 26.7429 50.2765 24.0728C50.2765 21.4992 48.8771 19.7139 46.6896 19.7139C45.5637 19.7139 44.7916 20.2447 44.2608 20.9684H44.2126V19.9391H42.1055V30.8927ZM46.2393 26.6142C44.9364 26.6142 44.2447 25.6331 44.2447 24.1371C44.2447 22.6574 44.7916 21.4831 46.1588 21.4831C47.5099 21.4831 48.0568 22.5769 48.0568 24.1371C48.0568 25.6974 47.3491 26.6142 46.2393 26.6142Z" fill="#D1D5DB"/>
<path d="M54.6404 28.4318C56.6992 28.4318 58.1147 27.4345 58.1147 25.7778C58.1147 23.8476 56.5867 23.4616 55.2034 23.1721C54.0292 22.9308 52.9354 22.8664 52.9354 22.1587C52.9354 21.5636 53.4983 21.2419 54.3509 21.2419C55.2838 21.2419 55.8467 21.5636 55.9432 22.4483H57.9217C57.7608 20.7915 56.5545 19.7139 54.3831 19.7139C52.5011 19.7139 51.0213 20.5663 51.0213 22.3517C51.0213 24.1532 52.469 24.5554 53.9487 24.8449C55.0747 25.07 56.1202 25.1505 56.1202 25.9387C56.1202 26.5177 55.5733 26.8876 54.6082 26.8876C53.6271 26.8876 52.9515 26.4695 52.8067 25.5204H50.78C50.9087 27.2737 52.2438 28.4318 54.6404 28.4318Z" fill="#D1D5DB"/>
<path d="M66.42 28.1904V19.939H64.2325V24.7C64.2325 25.7938 63.6052 26.5658 62.5758 26.5658C61.6429 26.5658 61.2086 26.035 61.2086 25.0699V19.939H59.0371V25.4399C59.0371 27.2414 60.0666 28.4156 61.9002 28.4156C63.0583 28.4156 63.7017 27.9813 64.2647 27.2253H64.313V28.1904H66.42Z" fill="#D1D5DB"/>
<path d="M67.8352 28.1905H70.0228V23.3972C70.0228 22.3035 70.6179 21.5958 71.5026 21.5958C72.3068 21.5958 72.7733 22.0783 72.7733 23.0112V28.1905H74.9608V23.3972C74.9608 22.3035 75.5238 21.5958 76.4406 21.5958C77.2448 21.5958 77.7113 22.0783 77.7113 23.0112V28.1905H79.8988V22.6413C79.8988 20.8398 78.9176 19.7139 77.1805 19.7139C76.135 19.7139 75.2664 20.2607 74.7034 21.1615H74.6713C74.2691 20.2929 73.4327 19.7139 72.3872 19.7139C71.2452 19.7139 70.441 20.2929 69.9906 21.0489H69.9423V19.9391H67.8352V28.1905Z" fill="#D1D5DB"/>
<path d="M38.541 14.0577H40.7285V2.55713H38.541V14.0577Z" fill="#D1D5DB"/>
<path d="M46.0771 14.299C48.6346 14.299 50.3878 12.401 50.3878 9.94001C50.3878 7.47905 48.6346 5.58105 46.0771 5.58105C43.5196 5.58105 41.7664 7.47905 41.7664 9.94001C41.7664 12.401 43.5196 14.299 46.0771 14.299ZM46.0771 12.6262C44.726 12.6262 43.9861 11.5485 43.9861 9.94001C43.9861 8.33153 44.726 7.23778 46.0771 7.23778C47.4121 7.23778 48.1681 8.33153 48.1681 9.94001C48.1681 11.5485 47.4121 12.6262 46.0771 12.6262Z" fill="#D1D5DB"/>
<path d="M55.04 16.8726C56.2624 16.8726 57.324 16.583 58.0156 15.9396C58.6268 15.3766 58.9968 14.5885 58.9968 13.4304V5.80624H56.8897V6.67481H56.8576C56.3589 5.98317 55.6029 5.58105 54.5735 5.58105C52.4825 5.58105 51.0027 7.15736 51.0027 9.61833C51.0027 12.1114 52.8042 13.559 54.6379 13.559C55.6834 13.559 56.3107 13.1409 56.7932 12.594H56.8415V13.4947C56.8415 14.6206 56.2464 15.2158 55.0078 15.2158C53.9944 15.2158 53.528 14.8137 53.3511 14.299H51.1796C51.4048 15.9074 52.7881 16.8726 55.04 16.8726ZM55.0078 11.8058C53.8819 11.8058 53.142 10.9855 53.142 9.58617C53.142 8.20289 53.8819 7.33429 54.9917 7.33429C56.3107 7.33429 56.954 8.36369 56.954 9.57009C56.954 10.7925 56.3911 11.8058 55.0078 11.8058Z" fill="#D1D5DB"/>
<path d="M64.3139 14.299C66.8713 14.299 68.6246 12.401 68.6246 9.94001C68.6246 7.47905 66.8713 5.58105 64.3139 5.58105C61.7565 5.58105 60.0032 7.47905 60.0032 9.94001C60.0032 12.401 61.7565 14.299 64.3139 14.299ZM64.3139 12.6262C62.9628 12.6262 62.2229 11.5485 62.2229 9.94001C62.2229 8.33153 62.9628 7.23778 64.3139 7.23778C65.6489 7.23778 66.4049 8.33153 66.4049 9.94001C66.4049 11.5485 65.6489 12.6262 64.3139 12.6262Z" fill="#D1D5DB"/>
<path d="M70.5422 10.9049H79.9999V9.02295H70.5422V10.9049Z" fill="#D1D5DB"/>
<path d="M80.6934 18.5374C80.6934 18.1673 80.9934 17.8672 81.3638 17.8672H82.7038C83.0742 17.8672 83.3742 18.1673 83.3742 18.5374C83.3742 18.9075 83.0742 19.2076 82.7038 19.2076H81.3638C80.9934 19.2076 80.6934 18.9075 80.6934 18.5374Z" fill="#D1D5DB"/>
<path fill-rule="evenodd" clip-rule="evenodd" d="M16.4172 0C25.2538 0 32.4172 7.16344 32.4172 16C32.4172 24.8366 25.2538 32 16.4172 32C7.58068 32 0.417236 24.8366 0.417236 16C0.417236 7.16344 7.58068 0 16.4172 0ZM15.8389 1.19727C14.0136 1.45415 12.2756 2.92086 10.9264 5.37392C10.535 6.08546 10.1819 6.87157 9.87411 7.72035C11.7087 7.25934 13.724 6.98754 15.8389 6.9455V1.19727ZM8.52187 8.10464C8.90451 6.90366 9.37267 5.79872 9.91291 4.81652C10.5817 3.60047 11.3755 2.55036 12.2698 1.74382C7.40667 3.15618 3.57342 6.98943 2.16106 11.8526C2.96759 10.9582 4.01771 10.1645 5.23376 9.49568C6.21596 8.95544 7.3209 8.48728 8.52187 8.10464ZM8.13755 9.45688C7.67657 11.2914 7.40478 13.3067 7.36274 15.4217H1.6145C1.87139 13.5963 3.3381 11.8582 5.79116 10.5091C6.5027 10.1178 7.28881 9.76464 8.13755 9.45688ZM8.51963 15.4217C8.56739 13.1136 8.89963 10.9467 9.44939 9.03216C11.364 8.4824 13.5309 8.15008 15.8389 8.10232V10.6006C14.9779 12.805 13.2217 14.561 11.0173 15.4217H8.51963ZM7.36274 16.5783H1.6145C1.87139 18.4037 3.3381 20.1417 5.79116 21.4909C6.5027 21.8822 7.28881 22.2354 8.13755 22.5431C7.67657 20.7086 7.40478 18.6933 7.36274 16.5783ZM9.44939 22.9678C8.89963 21.0533 8.56739 18.8864 8.51963 16.5783H11.0173C13.2217 17.439 14.978 19.195 15.8389 21.3994V23.8977C13.5309 23.8499 11.364 23.5176 9.44939 22.9678ZM8.52187 23.8954C7.3209 23.5127 6.21596 23.0446 5.23376 22.5043C4.01771 21.8355 2.96759 21.0418 2.16106 20.1474C3.57342 25.0106 7.40667 28.8438 12.2698 30.2562C11.3755 29.4496 10.5817 28.3995 9.91291 27.1834C9.37267 26.2013 8.90451 25.0963 8.52187 23.8954ZM15.8389 30.8027C14.0136 30.5458 12.2756 29.0791 10.9264 26.6261C10.535 25.9146 10.1819 25.1284 9.87411 24.2797C11.7087 24.7406 13.724 25.0125 15.8389 25.0545V30.8027ZM20.5647 30.2562C21.459 29.4496 22.2528 28.3995 22.9216 27.1834C23.4618 26.2013 23.93 25.0963 24.3126 23.8954C25.5136 23.5127 26.6185 23.0446 27.6008 22.5043C28.8168 21.8355 29.8669 21.0418 30.6734 20.1474C29.2611 25.0106 25.4278 28.8438 20.5647 30.2562ZM22.9604 24.2797C22.6526 25.1284 22.2995 25.9146 21.9081 26.6261C20.559 29.0791 18.8209 30.5458 16.9956 30.8027V25.0545C19.1105 25.0125 21.1258 24.7406 22.9604 24.2797ZM24.6969 22.5431C25.5456 22.2354 26.3318 21.8822 27.0433 21.4909C29.4964 20.1417 30.9631 18.4037 31.22 16.5783H25.4717C25.4297 18.6933 25.1579 20.7086 24.6969 22.5431ZM24.3149 16.5783C24.2672 18.8864 23.9348 21.0533 23.3851 22.9678C21.4705 23.5176 19.3036 23.8499 16.9956 23.8977V21.4012C17.8563 19.1961 19.6128 17.4393 21.8179 16.5783H24.3149ZM25.4717 15.4217H31.22C30.9631 13.5963 29.4964 11.8582 27.0433 10.5091C26.3318 10.1178 25.5456 9.76464 24.6969 9.45688C25.1579 11.2914 25.4297 13.3067 25.4717 15.4217ZM23.3851 9.03216C23.9348 10.9467 24.2672 13.1136 24.3149 15.4217H21.8179C19.6128 14.5607 17.8563 12.8039 16.9956 10.5988V8.10232C19.3036 8.15008 21.4705 8.4824 23.3851 9.03216ZM24.3126 8.10464C25.5136 8.48728 26.6185 8.95544 27.6008 9.49568C28.8168 10.1645 29.8669 10.9582 30.6734 11.8526C29.2611 6.98943 25.4278 3.15618 20.5647 1.74382C21.459 2.55036 22.2528 3.60047 22.9216 4.81652C23.4618 5.79872 23.93 6.90366 24.3126 8.10464ZM16.9956 1.19727C18.8209 1.45415 20.559 2.92086 21.9081 5.37392C22.2995 6.08547 22.6526 6.87157 22.9604 7.72035C21.1258 7.25934 19.1105 6.98754 16.9956 6.9455V1.19727Z" fill="#D1D5DB"/>
</g>
<defs>
<clipPath id="clip0_359_527">
<rect width="84" height="32" fill="white"/>
</clipPath>
</defs>
</svg>